# Blender v2.79 (sub 0) OBJ File: 'lav III.blend'
# www.blender.org
mtllib lav III_Cassie_Door .mtl
g lav_Casse_door_Cube.003
v 1.350701 2.062826 -0.027481
v -1.350701 2.062826 -0.027481
v -1.356578 -0.012445 -0.027481
v 1.356578 -0.012445 -0.027481
v -1.215631 1.848499 -0.127481
v 1.215631 1.848499 -0.127481
v -1.220920 -0.012445 -0.127481
v 1.220920 -0.012445 -0.127481
v -1.350701 2.062826 0.032519
v 1.350701 2.062826 0.032519
v -1.356578 -0.012445 0.032519
v 1.356578 -0.012445 0.032519
vt 0.578125 0.062500
vt 0.082031 0.062500
vt 0.082031 0.054688
vt 0.578125 0.054688
vt 0.109375 0.421875
vt 0.109375 0.082031
vt 0.550781 0.082031
vt 0.550781 0.421875
vt 0.582031 0.082031
vt 0.582031 0.460938
vt 0.078125 0.460938
vt 0.078125 0.082031
vt 0.574219 0.464844
vt 0.085938 0.464844
vt 0.187500 0.535156
vt 0.738281 0.535156
vt 0.742188 0.960938
vt 0.187500 0.960938
vt 0.593750 0.082031
vt 0.593750 0.460938
vt 0.066406 0.460938
vt 0.066406 0.082031
vt 0.574219 0.472656
vt 0.085938 0.472656
vn 0.0000 -1.0000 0.0000
vn 0.0000 0.0000 -1.0000
vn -0.5933 0.0017 -0.8050
vn 0.5933 0.0017 -0.8050
vn 0.0000 0.4228 -0.9062
vn 0.0000 0.0000 1.0000
vn -1.0000 0.0028 0.0000
vn 1.0000 0.0028 0.0000
vn 0.0000 1.0000 0.0000
usemtl door
s off
f 3/1/1 4/2/1 12/3/1 11/4/1
f 6/5/2 8/6/2 7/7/2 5/8/2
f 4/2/1 3/1/1 7/7/1 8/6/1
f 3/9/3 2/10/3 5/8/3 7/7/3
f 1/11/4 4/12/4 8/6/4 6/5/4
f 2/13/5 1/14/5 6/5/5 5/8/5
f 10/15/6 9/16/6 11/17/6 12/18/6
f 2/10/7 3/9/7 11/19/7 9/20/7
f 4/12/8 1/11/8 10/21/8 12/22/8
f 1/14/9 2/13/9 9/23/9 10/24/9
