# Blender v2.79 (sub 0) OBJ File: 'lav III.blend'
# www.blender.org
o boxMagazine_Cube.002
v 0.065534 -0.064877 -0.040401
v 0.065534 0.200204 -0.040401
v 0.065534 -0.064877 0.109619
v 0.065534 0.200204 0.109619
v -0.059699 -0.064877 -0.040401
v -0.059699 0.200204 -0.040401
v -0.059699 -0.064877 0.109619
v -0.059699 0.200204 0.109619
vt 0.352625 0.339597
vt 0.160475 0.339597
vt 0.160475 0.000072
vt 0.352625 0.000072
vt 0.513028 0.500000
vt 0.513028 0.839526
vt 0.352625 0.839526
vt 0.352625 0.500000
vt 0.160475 0.839526
vt 0.160475 0.500000
vt 0.000072 0.839526
vt 0.000072 0.500000
vt 0.160475 0.999928
vt 0.352625 0.999928
vn 1.0000 0.0000 0.0000
vn 0.0000 0.0000 1.0000
vn -1.0000 -0.0000 0.0000
vn 0.0000 0.0000 -1.0000
vn 0.0000 -1.0000 0.0000
vn 0.0000 1.0000 0.0000
s off
f 3/1/1 1/2/1 2/3/1 4/4/1
f 3/5/2 4/6/2 8/7/2 7/8/2
f 7/8/3 8/7/3 6/9/3 5/10/3
f 2/11/4 1/12/4 5/10/4 6/9/4
f 3/1/5 7/8/5 5/10/5 1/2/5
f 2/13/6 6/9/6 8/7/6 4/14/6
